<svg id="Capa_1" enable-background="new 0 0 512 512" height="512" viewBox="0 0 512 512" width="512" xmlns="http://www.w3.org/2000/svg"><path d="m256.015 481.003c-1.035 0-2.084-.107-3.137-.331l-109.324-23.261c-25.237-5.37-43.554-27.994-43.554-53.796v-308.615c0-52.383 42.617-95 95-95h122c52.383 0 95 42.617 95 95v96c0 8.284-6.716 15-15 15s-15-6.716-15-15v-96c0-35.841-29.159-65-65-65h-122c-35.841 0-65 29.159-65 65v308.615c0 11.729 8.326 22.012 19.797 24.452l109.325 23.261c8.103 1.725 13.273 9.69 11.55 17.794-1.5 7.05-7.727 11.881-14.657 11.881z" fill="#5e6b75"/><path d="m317 0h-61v30h61c35.841 0 65 29.159 65 65v96c0 8.284 6.716 15 15 15s15-6.716 15-15v-96c0-52.383-42.617-95-95-95z" fill="#4f5961"/><path d="m125 366h-70c-30.327 0-55-24.673-55-55v-80c0-30.327 24.673-55 55-55h70c8.284 0 15 6.716 15 15v160c0 8.284-6.716 15-15 15z" fill="#00b4bc"/><path d="m125 386h-20c-19.299 0-35-15.701-35-35v-160c0-19.299 15.701-35 35-35h20c19.299 0 35 15.701 35 35v160c0 19.299-15.701 35-35 35z" fill="#00ddc1"/><path d="m457 366h-70c-8.284 0-15-6.716-15-15v-160c0-8.284 6.716-15 15-15h70c30.327 0 55 24.673 55 55v80c0 30.327-24.673 55-55 55z" fill="#008575"/><path d="m407 386h-20c-19.299 0-35-15.701-35-35v-160c0-19.299 15.701-35 35-35h20c19.299 0 35 15.701 35 35v160c0 19.299-15.701 35-35 35z" fill="#00b4bc"/><path d="m256 512c-24.813 0-45-20.187-45-45s20.187-45 45-45 45 20.187 45 45-20.187 45-45 45z" fill="#00ddc1"/><path d="m301 467c0-24.813-20.187-45-45-45v90c24.813 0 45-20.187 45-45" fill="#00b4bc"/><path d="m256 452c-8.271 0-15 6.729-15 15s6.729 15 15 15 15-6.729 15-15-6.729-15-15-15z" fill="#00a88f"/><path d="m271 467c0-8.271-6.729-15-15-15v30c8.271 0 15-6.729 15-15z" fill="#008575"/></svg>