<svg height="512" viewBox="0 0 64 64" width="512" xmlns="http://www.w3.org/2000/svg" xmlns:xlink="http://www.w3.org/1999/xlink"><linearGradient id="New_Gradient_Swatch_1" gradientUnits="userSpaceOnUse" x1="32" x2="32" y1="-.272" y2="66.057"><stop offset="0" stop-color="#fff33b"/><stop offset=".014" stop-color="#fee72e"/><stop offset=".042" stop-color="#fed51b"/><stop offset=".07" stop-color="#fdca10"/><stop offset=".1" stop-color="#fdc70c"/><stop offset=".4" stop-color="#f3903f"/><stop offset=".8" stop-color="#ed683c"/><stop offset="1" stop-color="#e93e3a"/></linearGradient><path d="m60 30.184v-7.184a21.024 21.024 0 0 0 -21-21h-14a21.024 21.024 0 0 0 -21 21v7.184a3 3 0 0 0 -2 2.816v8a3 3 0 0 0 3 3v7a9.01 9.01 0 0 0 9 9h11.184a3 3 0 0 0 2.816 2h8a3 3 0 0 0 0-6h-8a3 3 0 0 0 -2.816 2h-11.184a7.008 7.008 0 0 1 -7-7v-7h1.1a5.009 5.009 0 0 0 4.9 4h4a1 1 0 0 0 1-1v-20a1 1 0 0 0 -1-1h-4a4.948 4.948 0 0 0 -3 1.026v-4.026a15.017 15.017 0 0 1 15-15h14a15.017 15.017 0 0 1 15 15v4.026a4.948 4.948 0 0 0 -3-1.026h-4a1 1 0 0 0 -1 1v20a1 1 0 0 0 1 1h4a5.009 5.009 0 0 0 4.9-4h3.1a3 3 0 0 0 3-3v-8a3 3 0 0 0 -2-2.816zm-32 27.816h8a1 1 0 0 1 0 2h-8a1 1 0 0 1 0-2zm-24-17v-8a1 1 0 0 1 1-1h3v10h-3a1 1 0 0 1 -1-1zm9-13h3v18h-3a3 3 0 0 1 -3-3v-12a3 3 0 0 1 3-3zm26-22h-14a17.019 17.019 0 0 0 -17 17v7h-2v-7a19.021 19.021 0 0 1 19-19h14a19.021 19.021 0 0 1 19 19v7h-2v-7a17.019 17.019 0 0 0 -17-17zm15 37a3 3 0 0 1 -3 3h-3v-18h3a3 3 0 0 1 3 3zm6-2a1 1 0 0 1 -1 1h-3v-10h3a1 1 0 0 1 1 1z" fill="url(#New_Gradient_Swatch_1)"/></svg>