<svg height="464pt" viewBox="-88 0 464 464" width="464pt" xmlns="http://www.w3.org/2000/svg"><path d="m32 0h224c17.671875 0 32 14.328125 32 32v400c0 17.671875-14.328125 32-32 32h-224c-17.671875 0-32-14.328125-32-32v-400c0-17.671875 14.328125-32 32-32zm0 0" fill="#2d72bc"/><path d="m40 0h216c17.671875 0 32 14.328125 32 32v296h-120c-70.691406 0-128-57.308594-128-128zm0 0" fill="#4891d3"/><path d="m256 0h-128c0 17.671875 14.328125 32 32 32h80c8.835938 0 16 7.164062 16 16v96c0 17.671875 14.328125 32 32 32v-144c0-17.671875-14.328125-32-32-32zm0 0" fill="#57b7eb"/><path d="m0 368h288v64c0 17.671875-14.328125 32-32 32h-224c-17.671875 0-32-14.328125-32-32zm0 0" fill="#fcbc04"/><path d="m112 400h64c4.417969 0 8 3.582031 8 8v16c0 4.417969-3.582031 8-8 8h-64c-4.417969 0-8-3.582031-8-8v-16c0-4.417969 3.582031-8 8-8zm0 0" fill="#7ab92d"/><path d="m120 400h56c4.417969 0 8 3.582031 8 8v8h-48c-8.835938 0-16-7.164062-16-16zm0 0" fill="#a1d51c"/><path d="m264 368h-216c0 13.253906 10.746094 24 24 24h184c4.417969 0 8 3.582031 8 8 0 13.253906 10.746094 24 24 24v-56zm0 0" fill="#f9e109"/><path d="m232 192c0 48.601562-39.398438 88-88 88s-88-39.398438-88-88 39.398438-88 88-88 88 39.398438 88 88zm0 0" fill="#e59730"/><path d="m144 104c-23.394531.011719-45.816406 9.339844-62.320312 25.921875 5.710937 32.402344 26.417968 60.191406 55.832031 74.933594 29.417969 14.738281 64.074219 14.6875 93.449219-.136719.667968-4.207031 1.015624-8.457031 1.039062-12.71875 0-48.601562-39.398438-88-88-88zm0 0" fill="#fcbc04"/><path d="m144 280c20.433594.011719 40.230469-7.089844 56-20.078125v-163.921875h-112v163.921875c15.769531 12.988281 35.566406 20.089844 56 20.078125zm0 0" fill="#c4f236"/><path d="m168 192c0 13.253906-10.746094 24-24 24s-24-10.746094-24-24 10.746094-24 24-24 24 10.746094 24 24zm0 0" fill="#f9e109"/><path d="m168 96h32v32c-17.671875 0-32-14.328125-32-32zm0 0" fill="#f9e109"/><path d="m168 256h-.640625c-31.003906-.828125-55.632813-26.34375-55.359375-57.359375v-102.640625h-24v163.921875c32.515625 26.820313 79.484375 26.820313 112 0v-10c-10.1875 4.023437-21.046875 6.085937-32 6.078125zm0 0" fill="#a1d51c"/><path d="m88 96h32c0 17.671875-14.328125 32-32 32zm0 0" fill="#f9e109"/><path d="m112 116.960938v-20.960938h-24v32c9.214844-.050781 17.964844-4.074219 24-11.039062zm0 0" fill="#fcbc04"/><path d="m152 248c0 4.417969-3.582031 8-8 8s-8-3.582031-8-8 3.582031-8 8-8 8 3.582031 8 8zm0 0" fill="#fcbc04"/><path d="m152 136c0 4.417969-3.582031 8-8 8s-8-3.582031-8-8 3.582031-8 8-8 8 3.582031 8 8zm0 0" fill="#f9e109"/><path d="m150.078125 253.039062c1.207031-1.40625 1.882813-3.1875 1.921875-5.039062 0-4.417969-3.582031-8-8-8-3.59375.066406-6.703125 2.519531-7.601562 6 4.222656 2.957031 8.824218 5.324219 13.679687 7.039062zm0 0" fill="#f9e109"/><path d="m256 64c0 8.835938-7.164062 16-16 16s-16-7.164062-16-16 7.164062-16 16-16 16 7.164062 16 16zm0 0" fill="#f9e109"/><path d="m248 72c-8.835938 0-16-7.164062-16-16 .011719-2.265625.5-4.5 1.441406-6.558594-6.527344 2.898438-10.339844 9.773438-9.347656 16.84375.992188 7.070313 6.550781 12.628906 13.621094 13.621094 7.070312.992188 13.945312-2.820312 16.84375-9.347656-2.058594.941406-4.292969 1.429687-6.558594 1.441406zm0 0" fill="#fcbc04"/><g fill="#a1d51c"><path d="m56 40c0 4.417969-3.582031 8-8 8s-8-3.582031-8-8 3.582031-8 8-8 8 3.582031 8 8zm0 0"/><path d="m88 40c0 4.417969-3.582031 8-8 8s-8-3.582031-8-8 3.582031-8 8-8 8 3.582031 8 8zm0 0"/><path d="m112 328h-64v-21.601562l1.359375 2c1.472656 2.238281 3.964844 3.585937 6.640625 3.601562 1.574219.019531 3.113281-.457031 4.398438-1.359375 3.652343-2.441406 4.652343-7.371094 2.242187-11.039063l-16-24c-1.488281-2.214843-3.976563-3.539062-6.640625-3.539062s-5.152344 1.324219-6.640625 3.539062l-16 24c-1.902344 2.363282-2.304687 5.601563-1.039063 8.359376 1.269532 2.757812 3.988282 4.5625 7.023438 4.652343 3.035156.09375 5.859375-1.539062 7.296875-4.214843l1.359375-2v29.601562c0 4.417969 3.582031 8 8 8h72c4.417969 0 8-3.582031 8-8s-3.582031-8-8-8zm0 0"/><path d="m260.398438 305.359375c-3.667969-2.410156-8.597657-1.410156-11.039063 2.242187l-1.359375 2v-29.601562c0-4.417969-3.582031-8-8-8s-8 3.582031-8 8v29.601562l-1.359375-2c-2.59375-3.21875-7.207031-3.933593-10.648437-1.652343-3.445313 2.28125-4.585938 6.8125-2.632813 10.449219l16 24c1.488281 2.214843 3.976563 3.539062 6.640625 3.539062s5.152344-1.324219 6.640625-3.539062l16-24c2.410156-3.667969 1.410156-8.597657-2.242187-11.039063zm0 0"/></g><path d="m262.640625 316.398438c1.902344-2.363282 2.304687-5.601563 1.039063-8.359376-1.269532-2.757812-3.988282-4.5625-7.023438-4.652343-3.035156-.09375-5.859375 1.539062-7.296875 4.214843l-1.359375 2v-29.601562c0-4.417969-3.582031-8-8-8s-8 3.582031-8 8v29.601562l-1.359375-2c-2.59375-3.21875-7.207031-3.933593-10.648437-1.652343-3.445313 2.28125-4.585938 6.8125-2.632813 10.449219l8 11.601562h29.921875zm0 0" fill="#c4f236"/></svg>